<svg xmlns="http://www.w3.org/2000/svg" width="96" height="64" viewBox="0 0 96 64">
  <defs>
    <linearGradient id="g" x1="0" y1="0" x2="0" y2="1">
      <stop offset="0" stop-color="#ff9aa7"/>
      <stop offset="1" stop-color="#e23b57"/>
    </linearGradient>
  </defs>

  <!-- tracks -->
  <rect x="10" y="42" width="76" height="14" rx="7" fill="#1a2231"/>
  <rect x="14" y="45" width="68" height="8" rx="4" fill="#2a3650"/>
  <!-- wheels -->
  <g fill="#101722" opacity="0.85">
    <circle cx="24" cy="52" r="4"/>
    <circle cx="38" cy="52" r="4"/>
    <circle cx="52" cy="52" r="4"/>
    <circle cx="66" cy="52" r="4"/>
    <circle cx="78" cy="52" r="4"/>
  </g>

  <!-- body -->
  <path d="M20 40c2-10 12-18 26-18h8c14 0 24 8 26 18H20z" fill="url(#g)" stroke="#20060c" stroke-width="2"/>
  <rect x="28" y="26" width="40" height="16" rx="8" fill="#ff6b82" stroke="#20060c" stroke-width="2"/>

  <!-- turret -->
  <rect x="44" y="18" width="18" height="10" rx="5" fill="#ff6b82" stroke="#20060c" stroke-width="2"/>
  <rect x="58" y="20" width="26" height="6" rx="3" fill="#ff6b82" stroke="#20060c" stroke-width="2"/>

  <!-- highlight -->
  <path d="M26 38c4-8 12-12 22-12h8c10 0 18 4 22 12" fill="none" stroke="#ffffff" stroke-opacity="0.18" stroke-width="3"/>
</svg>
